<?xml version="1.0" standalone="no"?><!DOCTYPE svg PUBLIC "-//W3C//DTD SVG 1.1//EN" "http://www.w3.org/Graphics/SVG/1.1/DTD/svg11.dtd"><svg class="icon" width="200px" height="200.00px" viewBox="0 0 1024 1024" version="1.1" xmlns="http://www.w3.org/2000/svg"><path d="M864.443641 876.603255c0 36.787462-27.158529 66.661844-60.736347 66.661844H173.38252c-33.577818 0-60.736347-29.874382-60.736348-66.661844v-729.576854c0-36.787462 27.158529-66.661844 60.736348-66.661844h630.201326c33.577818 0 60.736347 29.874382 60.736347 66.661844l0.123448 729.576854z" fill="#DCC59E" /><path d="M820.866546 10.863412H203.997589c-84.932128 0-153.692586 67.772875-153.692586 151.71742v698.838336c0 83.944545 68.760458 151.71742 153.692586 151.71742h615.881374c84.932128 0 153.692586-67.772875 153.692586-151.71742V162.457384c0.987583-83.944545-67.772875-151.593972-152.705003-151.593972z m82.956962 849.321278c0 44.44123-37.404702 81.969379-82.956962 81.969379H204.985172c-45.55226 0-82.956962-36.417119-82.956962-81.969379v-698.714889c0-44.44123 37.404702-81.969379 82.956962-81.969379h615.881374c45.55226 0 82.956962 36.417119 82.956962 81.969379v698.714889z" fill="#272536" /><path d="M261.64774 316.273418h266.030138c19.257866 0 35.429536-15.184087 35.429536-35.429536 0-19.257866-16.17167-35.429536-35.429536-35.429536H261.64774c-19.257866 0-35.429536 15.184087-35.429536 35.429536-0.987583 20.245449 15.184087 35.429536 35.429536 35.429536zM763.216395 476.014949H261.64774c-19.257866 0-35.429536 15.184087-35.429536 35.429536 0 19.257866 16.17167 35.429536 35.429536 35.429535h502.556238c19.257866 0 35.429536-15.184087 35.429536-35.429535s-16.17167-35.429536-36.417119-35.429536zM763.216395 706.492104H261.64774c-19.257866 0-35.429536 15.184087-35.429536 35.429536 0 19.257866 16.17167 35.429536 35.429536 35.429535h502.556238c19.257866 0 35.429536-15.184087 35.429536-35.429535s-16.17167-35.429536-36.417119-35.429536z" fill="#272536" /></svg>