<?xml version="1.0" standalone="no"?><!DOCTYPE svg PUBLIC "-//W3C//DTD SVG 1.1//EN" "http://www.w3.org/Graphics/SVG/1.1/DTD/svg11.dtd"><svg class="icon" width="200px" height="200.00px" viewBox="0 0 1024 1024" version="1.1" xmlns="http://www.w3.org/2000/svg"><path d="M64 904V120c0-30.93 25.07-56 56-56h784c30.93 0 56 25.07 56 56v784c0 30.93-25.07 56-56 56H120c-30.93 0-56-25.07-56-56z" fill="#E1F5FF" /><path d="M960 260H64V120c0-30.93 25.07-56 56-56h784c30.93 0 56 25.07 56 56v140z" fill="#8C9EFF" /><path d="M176 162m-28 0a28 28 0 1 0 56 0 28 28 0 1 0-56 0Z" fill="#FF4343" /><path d="M260 162m-28 0a28 28 0 1 0 56 0 28 28 0 1 0-56 0Z" fill="#FFD600" /><path d="M344 162m-28 0a28 28 0 1 0 56 0 28 28 0 1 0-56 0Z" fill="#65FF40" /><path d="M582 451.33H274c-23.2 0-42 18.8-42 42s18.8 42 42 42h308c23.2 0 42-18.8 42-42 0-23.19-18.8-42-42-42zM750 684.67H274c-23.2 0-42 18.8-42 42s18.8 42 42 42h476c23.2 0 42-18.8 42-42s-18.8-42-42-42z" fill="#313FA0" /></svg>